<svg width="63" height="60" viewBox="0 0 63 60" fill="none" xmlns="http://www.w3.org/2000/svg">
<g clip-path="url(#clip0_11_18)">
<path fill-rule="evenodd" clip-rule="evenodd" d="M2.06608 8.19014C0.368042 11.3988 0.368042 15.5992 0.368042 24V36C0.368042 44.4008 0.368042 48.6012 2.06608 51.8099C3.55973 54.6323 5.94306 56.927 8.87449 58.3651C12.2071 60 16.5697 60 25.2949 60H37.7584C46.4836 60 50.8462 60 54.1788 58.3651C57.1103 56.927 59.4936 54.6323 60.9872 51.8099C62.6853 48.6012 62.6853 44.4008 62.6853 36V24C62.6853 15.5992 62.6853 11.3988 60.9872 8.19014C59.4936 5.36771 57.1103 3.073 54.1788 1.6349C50.8462 0 46.4836 0 37.7584 0H25.2949C16.5697 0 12.2071 0 8.87449 1.6349C5.94306 3.073 3.55973 5.36771 2.06608 8.19014ZM11.4405 50H20.0536V23.294H11.4405V50ZM10.7542 14.8028C10.7542 17.4546 12.9882 19.6511 15.7424 19.6511C18.4957 19.6511 20.7306 17.4546 20.7306 14.8028C20.7306 13.529 20.205 12.3074 19.2696 11.4067C18.3341 10.506 17.0653 10 15.7424 10C14.4195 10 13.1507 10.506 12.2152 11.4067C11.2798 12.3074 10.7542 13.529 10.7542 14.8028ZM43.6952 50H52.2991V35.33C52.2991 28.1513 50.6966 22.6244 41.9796 22.6244C37.789 22.6244 34.9801 24.8387 33.8302 26.937H33.7096V23.294H25.4489V50H34.0527V36.7765C34.0527 33.2943 34.739 29.9281 39.2171 29.9281C43.6303 29.9281 43.6952 33.9014 43.6952 36.9997V50Z" fill="#0A66C2"/>
</g>
<defs>
<clipPath id="clip0_11_18">
<rect width="62.3172" height="60" fill="white" transform="translate(0.368042)"/>
</clipPath>
</defs>
</svg>
