<svg xmlns="http://www.w3.org/2000/svg" xmlns:xlink="http://www.w3.org/1999/xlink" width="350" zoomAndPan="magnify" viewBox="0 0 262.5 112.499997" height="150" preserveAspectRatio="xMidYMid meet" version="1.0"><defs><filter x="0%" y="0%" width="100%" height="100%" id="ec1c15fa33"><feColorMatrix values="0 0 0 0 1 0 0 0 0 1 0 0 0 0 1 0 0 0 1 0" color-interpolation-filters="sRGB"/></filter><g/><clipPath id="0dc04d1e9d"><path d="M 91 80.226562 L 96 80.226562 L 96 84 L 91 84 Z M 91 80.226562 " clip-rule="nonzero"/></clipPath><mask id="0fffb55fda"><g filter="url(#ec1c15fa33)"><rect x="-26.25" width="315" fill="#000000" y="-11.25" height="134.999996" fill-opacity="0.2471"/></g></mask><clipPath id="3322c4acd9"><path d="M 0.101562 0.195312 L 3.6875 0.195312 L 3.6875 3.777344 L 0.101562 3.777344 Z M 0.101562 0.195312 " clip-rule="nonzero"/></clipPath><clipPath id="17a1caaabf"><rect x="0" width="4" y="0" height="4"/></clipPath><clipPath id="c1de2e85a9"><path d="M 99 87 L 102.535156 87 L 102.535156 91 L 99 91 Z M 99 87 " clip-rule="nonzero"/></clipPath><mask id="4e18c5c1dc"><g filter="url(#ec1c15fa33)"><rect x="-26.25" width="315" fill="#000000" y="-11.25" height="134.999996" fill-opacity="0.4"/></g></mask><clipPath id="d61466df08"><path d="M 0.253906 0.210938 L 3.535156 0.210938 L 3.535156 3.796875 L 0.253906 3.796875 Z M 0.253906 0.210938 " clip-rule="nonzero"/></clipPath><clipPath id="b1145394b1"><rect x="0" width="4" y="0" height="4"/></clipPath><mask id="d2fc13a178"><g filter="url(#ec1c15fa33)"><rect x="-26.25" width="315" fill="#000000" y="-11.25" height="134.999996" fill-opacity="0.498"/></g></mask><clipPath id="bcb7e0d1e8"><path d="M 0.101562 0.707031 L 3.6875 0.707031 L 3.6875 4.292969 L 0.101562 4.292969 Z M 0.101562 0.707031 " clip-rule="nonzero"/></clipPath><clipPath id="fa0c1bb252"><rect x="0" width="4" y="0" height="5"/></clipPath><clipPath id="948bdeb930"><path d="M 91 94 L 96 94 L 96 98.183594 L 91 98.183594 Z M 91 94 " clip-rule="nonzero"/></clipPath><mask id="f868eba195"><g filter="url(#ec1c15fa33)"><rect x="-26.25" width="315" fill="#000000" y="-11.25" height="134.999996" fill-opacity="0.6"/></g></mask><clipPath id="10d7677835"><path d="M 1 1 L 4.191406 1 L 4.191406 4.183594 L 1 4.183594 Z M 1 1 " clip-rule="nonzero"/></clipPath><clipPath id="9173e4ca41"><rect x="0" width="5" y="0" height="5"/></clipPath><mask id="79c8a06d16"><g filter="url(#ec1c15fa33)"><rect x="-26.25" width="315" fill="#000000" y="-11.25" height="134.999996" fill-opacity="0.698"/></g></mask><clipPath id="f89d66e8a1"><path d="M 0.589844 0.707031 L 4 0.707031 L 4 4.292969 L 0.589844 4.292969 Z M 0.589844 0.707031 " clip-rule="nonzero"/></clipPath><clipPath id="bb05adb3fa"><rect x="0" width="5" y="0" height="5"/></clipPath><clipPath id="ee41f7f617"><path d="M 84.582031 87 L 89 87 L 89 92 L 84.582031 92 Z M 84.582031 87 " clip-rule="nonzero"/></clipPath><mask id="1c3fdde2d8"><g filter="url(#ec1c15fa33)"><rect x="-26.25" width="315" fill="#000000" y="-11.25" height="134.999996" fill-opacity="0.8"/></g></mask><clipPath id="1252a475ba"><path d="M 0.582031 0.453125 L 4 0.453125 L 4 4 L 0.582031 4 Z M 0.582031 0.453125 " clip-rule="nonzero"/></clipPath><clipPath id="16691a4c7b"><rect x="0" width="5" y="0" height="5"/></clipPath><mask id="a440350293"><g filter="url(#ec1c15fa33)"><rect x="-26.25" width="315" fill="#000000" y="-11.25" height="134.999996" fill-opacity="0.898"/></g></mask><clipPath id="03b9135e04"><path d="M 0.589844 0.195312 L 3.933594 0.195312 L 3.933594 3.777344 L 0.589844 3.777344 Z M 0.589844 0.195312 " clip-rule="nonzero"/></clipPath><clipPath id="ddbc37ec1a"><rect x="0" width="4" y="0" height="4"/></clipPath><mask id="de9d9dc967"><g filter="url(#ec1c15fa33)"><rect x="-26.25" width="315" fill="#000000" y="-11.25" height="134.999996" fill-opacity="0.7176"/></g></mask><clipPath id="35221dbaee"><rect x="0" width="133" y="0" height="13"/></clipPath></defs><g clip-path="url(#0dc04d1e9d)"><path fill="#57b8ff" d="M 95.09375 81.828125 C 95.09375 82.035156 95.054688 82.234375 94.976562 82.421875 C 94.898438 82.613281 94.785156 82.78125 94.640625 82.925781 C 94.496094 83.070312 94.328125 83.183594 94.136719 83.261719 C 93.945312 83.339844 93.75 83.378906 93.542969 83.378906 C 93.335938 83.378906 93.140625 83.339844 92.949219 83.261719 C 92.757812 83.183594 92.59375 83.070312 92.445312 82.925781 C 92.300781 82.78125 92.1875 82.613281 92.109375 82.421875 C 92.03125 82.234375 91.992188 82.035156 91.992188 81.828125 C 91.992188 81.625 92.03125 81.425781 92.109375 81.238281 C 92.1875 81.046875 92.300781 80.878906 92.445312 80.734375 C 92.59375 80.589844 92.757812 80.476562 92.949219 80.398438 C 93.140625 80.320312 93.335938 80.28125 93.542969 80.28125 C 93.75 80.28125 93.945312 80.320312 94.136719 80.398438 C 94.328125 80.476562 94.496094 80.589844 94.640625 80.734375 C 94.785156 80.878906 94.898438 81.046875 94.976562 81.238281 C 95.054688 81.425781 95.09375 81.625 95.09375 81.828125 Z M 95.09375 81.828125 " fill-opacity="1" fill-rule="nonzero"/></g><g mask="url(#0fffb55fda)"><g transform="matrix(1, 0, 0, 1, 97, 82)"><g clip-path="url(#17a1caaabf)"><g clip-path="url(#3322c4acd9)"><path fill="#57b8ff" d="M 3.355469 1.957031 C 3.355469 2.164062 3.3125 2.363281 3.234375 2.550781 C 3.15625 2.742188 3.042969 2.910156 2.898438 3.054688 C 2.753906 3.199219 2.585938 3.3125 2.394531 3.390625 C 2.207031 3.46875 2.007812 3.507812 1.804688 3.507812 C 1.597656 3.507812 1.398438 3.46875 1.210938 3.390625 C 1.019531 3.3125 0.851562 3.199219 0.707031 3.054688 C 0.5625 2.910156 0.449219 2.742188 0.371094 2.550781 C 0.292969 2.363281 0.253906 2.164062 0.253906 1.957031 C 0.253906 1.753906 0.292969 1.554688 0.371094 1.363281 C 0.449219 1.175781 0.5625 1.007812 0.707031 0.863281 C 0.851562 0.714844 1.019531 0.605469 1.210938 0.527344 C 1.398438 0.445312 1.597656 0.40625 1.804688 0.40625 C 2.007812 0.40625 2.207031 0.445312 2.394531 0.527344 C 2.585938 0.605469 2.753906 0.714844 2.898438 0.863281 C 3.042969 1.007812 3.15625 1.175781 3.234375 1.363281 C 3.3125 1.554688 3.355469 1.753906 3.355469 1.957031 Z M 3.355469 1.957031 " fill-opacity="1" fill-rule="nonzero"/></g></g></g></g><g clip-path="url(#c1de2e85a9)"><g mask="url(#4e18c5c1dc)"><g transform="matrix(1, 0, 0, 1, 99, 87)"><g clip-path="url(#b1145394b1)"><g clip-path="url(#d61466df08)"><path fill="#57b8ff" d="M 3.539062 2.09375 C 3.539062 2.300781 3.5 2.496094 3.421875 2.6875 C 3.34375 2.875 3.230469 3.042969 3.085938 3.191406 C 2.941406 3.335938 2.773438 3.449219 2.582031 3.527344 C 2.394531 3.605469 2.195312 3.644531 1.988281 3.644531 C 1.785156 3.644531 1.585938 3.605469 1.398438 3.527344 C 1.207031 3.449219 1.039062 3.335938 0.894531 3.191406 C 0.75 3.042969 0.636719 2.875 0.558594 2.6875 C 0.480469 2.496094 0.441406 2.300781 0.441406 2.09375 C 0.441406 1.886719 0.480469 1.691406 0.558594 1.5 C 0.636719 1.308594 0.75 1.140625 0.894531 0.996094 C 1.039062 0.851562 1.207031 0.738281 1.398438 0.660156 C 1.585938 0.582031 1.785156 0.542969 1.988281 0.542969 C 2.195312 0.542969 2.394531 0.582031 2.582031 0.660156 C 2.773438 0.738281 2.941406 0.851562 3.085938 0.996094 C 3.230469 1.140625 3.34375 1.308594 3.421875 1.5 C 3.5 1.691406 3.539062 1.886719 3.539062 2.09375 Z M 3.539062 2.09375 " fill-opacity="1" fill-rule="nonzero"/></g></g></g></g></g><g mask="url(#d2fc13a178)"><g transform="matrix(1, 0, 0, 1, 97, 92)"><g clip-path="url(#fa0c1bb252)"><g clip-path="url(#bcb7e0d1e8)"><path fill="#57b8ff" d="M 3.382812 2.472656 C 3.382812 2.679688 3.34375 2.878906 3.265625 3.066406 C 3.183594 3.257812 3.074219 3.425781 2.929688 3.570312 C 2.78125 3.714844 2.613281 3.828125 2.425781 3.90625 C 2.234375 3.984375 2.039062 4.023438 1.832031 4.023438 C 1.625 4.023438 1.429688 3.984375 1.238281 3.90625 C 1.046875 3.828125 0.878906 3.714844 0.734375 3.570312 C 0.589844 3.425781 0.476562 3.257812 0.398438 3.066406 C 0.320312 2.878906 0.28125 2.679688 0.28125 2.472656 C 0.28125 2.269531 0.320312 2.070312 0.398438 1.878906 C 0.476562 1.691406 0.589844 1.523438 0.734375 1.378906 C 0.878906 1.230469 1.046875 1.121094 1.238281 1.042969 C 1.429688 0.960938 1.625 0.921875 1.832031 0.921875 C 2.039062 0.921875 2.234375 0.960938 2.425781 1.042969 C 2.613281 1.121094 2.78125 1.230469 2.929688 1.378906 C 3.074219 1.523438 3.183594 1.691406 3.265625 1.878906 C 3.34375 2.070312 3.382812 2.269531 3.382812 2.472656 Z M 3.382812 2.472656 " fill-opacity="1" fill-rule="nonzero"/></g></g></g></g><g clip-path="url(#948bdeb930)"><g mask="url(#f868eba195)"><g transform="matrix(1, 0, 0, 1, 91, 94)"><g clip-path="url(#9173e4ca41)"><g clip-path="url(#10d7677835)"><path fill="#57b8ff" d="M 4.160156 2.582031 C 4.160156 2.785156 4.121094 2.984375 4.039062 3.175781 C 3.960938 3.363281 3.851562 3.53125 3.703125 3.675781 C 3.558594 3.824219 3.390625 3.933594 3.203125 4.015625 C 3.011719 4.09375 2.8125 4.132812 2.609375 4.132812 C 2.402344 4.132812 2.203125 4.09375 2.015625 4.015625 C 1.824219 3.933594 1.65625 3.824219 1.511719 3.675781 C 1.367188 3.53125 1.253906 3.363281 1.175781 3.175781 C 1.097656 2.984375 1.058594 2.785156 1.058594 2.582031 C 1.058594 2.375 1.097656 2.179688 1.175781 1.988281 C 1.253906 1.796875 1.367188 1.628906 1.511719 1.484375 C 1.65625 1.339844 1.824219 1.226562 2.015625 1.148438 C 2.203125 1.070312 2.402344 1.03125 2.609375 1.03125 C 2.8125 1.03125 3.011719 1.070312 3.203125 1.148438 C 3.390625 1.226562 3.558594 1.339844 3.703125 1.484375 C 3.851562 1.628906 3.960938 1.796875 4.039062 1.988281 C 4.121094 2.179688 4.160156 2.375 4.160156 2.582031 Z M 4.160156 2.582031 " fill-opacity="1" fill-rule="nonzero"/></g></g></g></g></g><g mask="url(#79c8a06d16)"><g transform="matrix(1, 0, 0, 1, 86, 92)"><g clip-path="url(#bb05adb3fa)"><g clip-path="url(#f89d66e8a1)"><path fill="#57b8ff" d="M 3.898438 2.515625 C 3.898438 2.71875 3.859375 2.917969 3.78125 3.109375 C 3.703125 3.296875 3.589844 3.464844 3.445312 3.609375 C 3.300781 3.757812 3.132812 3.867188 2.941406 3.945312 C 2.753906 4.027344 2.554688 4.066406 2.347656 4.066406 C 2.144531 4.066406 1.945312 4.027344 1.753906 3.945312 C 1.566406 3.867188 1.398438 3.757812 1.253906 3.609375 C 1.105469 3.464844 0.996094 3.296875 0.914062 3.109375 C 0.835938 2.917969 0.796875 2.71875 0.796875 2.515625 C 0.796875 2.308594 0.835938 2.109375 0.914062 1.921875 C 0.996094 1.730469 1.105469 1.5625 1.253906 1.417969 C 1.398438 1.273438 1.566406 1.160156 1.753906 1.082031 C 1.945312 1.003906 2.144531 0.964844 2.347656 0.964844 C 2.554688 0.964844 2.753906 1.003906 2.941406 1.082031 C 3.132812 1.160156 3.300781 1.273438 3.445312 1.417969 C 3.589844 1.5625 3.703125 1.730469 3.78125 1.921875 C 3.859375 2.109375 3.898438 2.308594 3.898438 2.515625 Z M 3.898438 2.515625 " fill-opacity="1" fill-rule="nonzero"/></g></g></g></g><g clip-path="url(#ee41f7f617)"><g mask="url(#1c3fdde2d8)"><g transform="matrix(1, 0, 0, 1, 84, 87)"><g clip-path="url(#16691a4c7b)"><g clip-path="url(#1252a475ba)"><path fill="#57b8ff" d="M 3.679688 2.226562 C 3.679688 2.429688 3.640625 2.628906 3.5625 2.820312 C 3.484375 3.007812 3.371094 3.175781 3.226562 3.324219 C 3.082031 3.46875 2.914062 3.578125 2.722656 3.660156 C 2.535156 3.738281 2.335938 3.777344 2.128906 3.777344 C 1.925781 3.777344 1.726562 3.738281 1.539062 3.660156 C 1.347656 3.578125 1.179688 3.46875 1.035156 3.324219 C 0.890625 3.175781 0.777344 3.007812 0.699219 2.820312 C 0.621094 2.628906 0.582031 2.429688 0.582031 2.226562 C 0.582031 2.019531 0.621094 1.824219 0.699219 1.632812 C 0.777344 1.441406 0.890625 1.273438 1.035156 1.128906 C 1.179688 0.984375 1.347656 0.871094 1.539062 0.792969 C 1.726562 0.714844 1.925781 0.675781 2.128906 0.675781 C 2.335938 0.675781 2.535156 0.714844 2.722656 0.792969 C 2.914062 0.871094 3.082031 0.984375 3.226562 1.128906 C 3.371094 1.273438 3.484375 1.441406 3.5625 1.632812 C 3.640625 1.824219 3.679688 2.019531 3.679688 2.226562 Z M 3.679688 2.226562 " fill-opacity="1" fill-rule="nonzero"/></g></g></g></g></g><g mask="url(#a440350293)"><g transform="matrix(1, 0, 0, 1, 86, 82)"><g clip-path="url(#ddbc37ec1a)"><g clip-path="url(#03b9135e04)"><path fill="#57b8ff" d="M 3.867188 2.027344 C 3.867188 2.234375 3.828125 2.429688 3.75 2.621094 C 3.671875 2.8125 3.558594 2.976562 3.414062 3.125 C 3.269531 3.269531 3.101562 3.382812 2.910156 3.460938 C 2.722656 3.539062 2.523438 3.578125 2.316406 3.578125 C 2.113281 3.578125 1.914062 3.539062 1.722656 3.460938 C 1.535156 3.382812 1.367188 3.269531 1.222656 3.125 C 1.074219 2.976562 0.964844 2.8125 0.886719 2.621094 C 0.808594 2.429688 0.765625 2.234375 0.765625 2.027344 C 0.765625 1.820312 0.808594 1.625 0.886719 1.433594 C 0.964844 1.242188 1.074219 1.078125 1.222656 0.929688 C 1.367188 0.785156 1.535156 0.671875 1.722656 0.59375 C 1.914062 0.515625 2.113281 0.476562 2.316406 0.476562 C 2.523438 0.476562 2.722656 0.515625 2.910156 0.59375 C 3.101562 0.671875 3.269531 0.785156 3.414062 0.929688 C 3.558594 1.078125 3.671875 1.242188 3.75 1.433594 C 3.828125 1.625 3.867188 1.820312 3.867188 2.027344 Z M 3.867188 2.027344 " fill-opacity="1" fill-rule="nonzero"/></g></g></g></g><g fill="#2b5e70" fill-opacity="1"><g transform="translate(50.271259, 32.916556)"><g><path d="M 13.386719 -12.09375 C 17.019531 -13.070312 18.558594 -15.726562 18.558594 -19.710938 L 18.558594 -20.585938 C 18.558594 -25.304688 16.460938 -28.34375 9.855469 -28.34375 L 2.0625 -28.34375 L 2.0625 0 L 5.101562 0 L 5.101562 -11.671875 L 10.242188 -11.671875 L 16.425781 0 L 19.710938 0 Z M 5.101562 -14.503906 L 5.101562 -25.515625 L 9.785156 -25.515625 C 13.421875 -25.515625 15.484375 -24.429688 15.484375 -20.585938 L 15.484375 -19.503906 C 15.484375 -15.761719 13.664062 -14.503906 9.785156 -14.503906 Z M 5.101562 -14.503906 "/></g></g></g><g fill="#2b5e70" fill-opacity="1"><g transform="translate(70.717319, 32.916556)"><g><path d="M 10.277344 -27.296875 L 7.621094 -22.230469 L 9.855469 -22.230469 L 13.804688 -27.296875 Z M 16.636719 -11.570312 C 16.636719 -16.953125 13.910156 -19.957031 9.085938 -19.957031 C 4.332031 -19.957031 1.539062 -16.917969 1.539062 -11.777344 L 1.539062 -8.074219 C 1.539062 -2.902344 4.367188 0.382812 9.75 0.382812 C 12.234375 0.382812 14.433594 -0.417969 16.007812 -1.433594 L 15.097656 -3.949219 C 13.875 -3.039062 11.988281 -2.375 10.03125 -2.375 C 6.570312 -2.375 4.613281 -4.507812 4.613281 -8.109375 L 4.613281 -8.808594 L 16.636719 -8.808594 Z M 9.121094 -17.230469 C 12.335938 -17.230469 13.632812 -14.925781 13.632812 -12.164062 L 13.632812 -11.535156 L 4.613281 -11.535156 L 4.613281 -11.917969 C 4.613281 -14.820312 6.011719 -17.230469 9.121094 -17.230469 Z M 9.121094 -17.230469 "/></g></g></g><g fill="#2b5e70" fill-opacity="1"><g transform="translate(88.891591, 32.916556)"><g><path d="M 5.136719 0 L 5.136719 -16.707031 C 6.292969 -17.019531 7.515625 -17.230469 8.492188 -17.230469 C 11.078125 -17.230469 12.40625 -16.113281 12.40625 -13.28125 L 12.40625 0 L 15.449219 0 L 15.449219 -13.457031 C 15.449219 -15.761719 16.425781 -17.230469 19.152344 -17.230469 C 22.089844 -17.230469 22.859375 -15.691406 22.859375 -13.28125 L 22.859375 0 L 25.933594 0 L 25.933594 -13.421875 C 25.933594 -18.035156 23.730469 -19.957031 19.46875 -19.957031 C 16.601562 -19.957031 14.820312 -18.945312 13.945312 -17.054688 C 13.105469 -19.152344 11.21875 -19.957031 8.667969 -19.957031 C 7.058594 -19.957031 4.578125 -19.609375 2.097656 -18.945312 L 2.097656 0 Z M 5.136719 0 "/></g></g></g><g fill="#2b5e70" fill-opacity="1"><g transform="translate(116.607358, 32.916556)"><g><path d="M 3.601562 -22.160156 C 4.789062 -22.160156 5.523438 -22.789062 5.523438 -23.976562 C 5.523438 -25.058594 4.789062 -25.722656 3.601562 -25.722656 C 2.410156 -25.722656 1.710938 -25.058594 1.710938 -23.976562 C 1.710938 -22.789062 2.445312 -22.160156 3.601562 -22.160156 Z M 5.136719 0 L 5.136719 -19.328125 L 2.097656 -19.328125 L 2.097656 0 Z M 5.136719 0 "/></g></g></g><g fill="#2b5e70" fill-opacity="1"><g transform="translate(123.842111, 32.916556)"><g/></g></g><g fill="#2b5e70" fill-opacity="1"><g transform="translate(129.678851, 32.916556)"><g><path d="M 5.101562 0 L 5.101562 -11.464844 L 10.207031 -11.464844 C 16.460938 -11.464844 18.804688 -14.398438 18.804688 -19.609375 L 18.804688 -20.480469 C 18.804688 -25.164062 16.8125 -28.34375 10.207031 -28.34375 L 2.0625 -28.34375 L 2.0625 0 Z M 5.101562 -25.515625 L 10.066406 -25.515625 C 13.804688 -25.515625 15.726562 -24.1875 15.726562 -20.375 L 15.726562 -19.46875 C 15.726562 -15.832031 14.050781 -14.296875 10.066406 -14.296875 L 5.101562 -14.296875 Z M 5.101562 -25.515625 "/></g></g></g><g fill="#2b5e70" fill-opacity="1"><g transform="translate(149.705506, 32.916556)"><g><path d="M 9.542969 0.417969 C 14.539062 0.417969 17.546875 -2.832031 17.546875 -7.757812 L 17.546875 -11.8125 C 17.546875 -16.707031 14.539062 -19.957031 9.542969 -19.957031 C 4.542969 -19.957031 1.503906 -16.707031 1.503906 -11.8125 L 1.503906 -7.757812 C 1.503906 -2.832031 4.542969 0.417969 9.542969 0.417969 Z M 9.542969 -2.339844 C 6.429688 -2.339844 4.613281 -4.578125 4.613281 -7.621094 L 4.613281 -11.953125 C 4.613281 -14.996094 6.394531 -17.195312 9.542969 -17.195312 C 12.652344 -17.195312 14.46875 -14.996094 14.46875 -11.953125 L 14.46875 -7.621094 C 14.46875 -4.578125 12.652344 -2.339844 9.542969 -2.339844 Z M 9.542969 -2.339844 "/></g></g></g><g fill="#2b5e70" fill-opacity="1"><g transform="translate(168.788493, 32.916556)"><g><path d="M 8.984375 0.417969 C 10.800781 0.417969 13.597656 0.0351562 16.113281 -0.59375 L 16.113281 -19.328125 L 13.070312 -19.328125 L 13.070312 -2.832031 C 11.742188 -2.445312 10.3125 -2.273438 9.191406 -2.273438 C 6.710938 -2.273438 5.136719 -3.214844 5.136719 -5.835938 L 5.136719 -19.328125 L 2.097656 -19.328125 L 2.097656 -5.695312 C 2.097656 -1.292969 4.789062 0.417969 8.984375 0.417969 Z M 8.984375 0.417969 "/></g></g></g><g fill="#2b5e70" fill-opacity="1"><g transform="translate(186.962766, 32.916556)"><g><path d="M 5.136719 0 L 5.136719 -28.34375 L 2.097656 -28.34375 L 2.097656 0 Z M 5.136719 0 "/></g></g></g><g fill="#2b5e70" fill-opacity="1"><g transform="translate(194.197519, 32.916556)"><g><path d="M 12.863281 -3.25 C 11.777344 -2.972656 10.207031 -2.832031 9.015625 -2.832031 C 6.535156 -2.832031 5 -3.773438 5 -6.359375 L 5 -19.328125 L 1.921875 -19.328125 L 1.921875 -6.117188 C 1.921875 -1.710938 4.648438 -0.0351562 8.84375 -0.0351562 C 9.960938 -0.0351562 11.535156 -0.175781 12.863281 -0.382812 L 12.863281 1.011719 C 12.863281 3.738281 11.8125 5.171875 8.527344 5.171875 C 6.851562 5.171875 4.683594 4.648438 3.179688 3.738281 L 3.773438 6.816406 C 4.859375 7.480469 7.164062 7.96875 8.984375 7.96875 C 13.210938 7.96875 15.9375 6.152344 15.9375 1.363281 L 15.9375 -19.152344 L 12.863281 -19.152344 Z M 12.863281 -3.25 "/></g></g></g><g fill="#2b5e70" fill-opacity="1"><g transform="translate(131.241782, 58.352077)"><g/></g></g><g fill="#2b5e70" fill-opacity="1"><g transform="translate(3.070601, 98.001565)"><g><path d="M 9.085938 0 C 16.460938 0 19.921875 -3.984375 19.921875 -10.976562 L 19.921875 -17.511719 C 19.921875 -24.292969 16.425781 -28.34375 9.085938 -28.34375 L 2.027344 -28.34375 L 2.027344 0 Z M 5.101562 -25.480469 L 9.015625 -25.480469 C 13.875 -25.480469 16.8125 -22.964844 16.8125 -17.617188 L 16.8125 -10.871094 C 16.8125 -5.417969 13.875 -2.867188 9.015625 -2.867188 L 5.101562 -2.867188 Z M 5.101562 -25.480469 "/></g></g></g><g fill="#2b5e70" fill-opacity="1"><g transform="translate(24.425375, 98.001565)"><g><path d="M 10.277344 -27.296875 L 7.621094 -22.230469 L 9.855469 -22.230469 L 13.804688 -27.296875 Z M 16.636719 -11.570312 C 16.636719 -16.953125 13.910156 -19.957031 9.085938 -19.957031 C 4.332031 -19.957031 1.539062 -16.917969 1.539062 -11.777344 L 1.539062 -8.074219 C 1.539062 -2.902344 4.367188 0.382812 9.75 0.382812 C 12.234375 0.382812 14.433594 -0.417969 16.007812 -1.433594 L 15.097656 -3.949219 C 13.875 -3.039062 11.988281 -2.375 10.03125 -2.375 C 6.570312 -2.375 4.613281 -4.507812 4.613281 -8.109375 L 4.613281 -8.808594 L 16.636719 -8.808594 Z M 9.121094 -17.230469 C 12.335938 -17.230469 13.632812 -14.925781 13.632812 -12.164062 L 13.632812 -11.535156 L 4.613281 -11.535156 L 4.613281 -11.917969 C 4.613281 -14.820312 6.011719 -17.230469 9.121094 -17.230469 Z M 9.121094 -17.230469 "/></g></g></g><g fill="#2b5e70" fill-opacity="1"><g transform="translate(42.599648, 98.001565)"><g><path d="M 8.632812 -2.0625 L 3.738281 -19.328125 L 0.417969 -19.328125 L 6.328125 0 L 10.90625 0 L 16.742188 -19.328125 L 13.457031 -19.328125 Z M 8.632812 -2.0625 "/></g></g></g><g fill="#2b5e70" fill-opacity="1"><g transform="translate(59.760358, 98.001565)"><g><path d="M 16.636719 -11.570312 C 16.636719 -16.953125 13.910156 -19.957031 9.085938 -19.957031 C 4.332031 -19.957031 1.539062 -16.917969 1.539062 -11.777344 L 1.539062 -8.074219 C 1.539062 -2.902344 4.367188 0.382812 9.75 0.382812 C 12.234375 0.382812 14.433594 -0.417969 16.007812 -1.433594 L 15.097656 -3.949219 C 13.875 -3.039062 11.988281 -2.375 10.03125 -2.375 C 6.570312 -2.375 4.613281 -4.507812 4.613281 -8.109375 L 4.613281 -8.808594 L 16.636719 -8.808594 Z M 9.121094 -17.230469 C 12.335938 -17.230469 13.632812 -14.925781 13.632812 -12.164062 L 13.632812 -11.535156 L 4.613281 -11.535156 L 4.613281 -11.917969 C 4.613281 -14.820312 6.011719 -17.230469 9.121094 -17.230469 Z M 9.121094 -17.230469 "/></g></g></g><g fill="#2b5e70" fill-opacity="1"><g transform="translate(77.93463, 98.001565)"><g><path d="M 5.136719 0 L 5.136719 -28.34375 L 2.097656 -28.34375 L 2.097656 0 Z M 5.136719 0 "/></g></g></g><g fill="#2b5e70" fill-opacity="1"><g transform="translate(102.661885, 98.001565)"><g><path d="M 5.136719 7.6875 L 5.136719 -0.28125 C 6.464844 0.0703125 7.792969 0.347656 9.050781 0.347656 C 14.261719 0.347656 16.988281 -2.902344 16.988281 -7.792969 L 16.988281 -11.777344 C 16.988281 -16.707031 14.191406 -19.957031 8.984375 -19.957031 C 6.5 -19.957031 4.160156 -19.433594 2.097656 -18.734375 L 2.097656 7.6875 Z M 8.878906 -2.410156 C 7.65625 -2.410156 6.328125 -2.691406 5.136719 -3.039062 L 5.136719 -16.707031 C 6.328125 -16.988281 7.550781 -17.195312 8.878906 -17.195312 C 12.269531 -17.195312 13.875 -14.996094 13.875 -11.953125 L 13.875 -7.65625 C 13.875 -4.613281 12.269531 -2.410156 8.878906 -2.410156 Z M 8.878906 -2.410156 "/></g></g></g><g fill="#2b5e70" fill-opacity="1"><g transform="translate(121.150714, 98.001565)"><g><path d="M 5.136719 7.6875 L 5.136719 -0.28125 C 6.464844 0.0703125 7.792969 0.347656 9.050781 0.347656 C 14.261719 0.347656 16.988281 -2.902344 16.988281 -7.792969 L 16.988281 -11.777344 C 16.988281 -16.707031 14.191406 -19.957031 8.984375 -19.957031 C 6.5 -19.957031 4.160156 -19.433594 2.097656 -18.734375 L 2.097656 7.6875 Z M 8.878906 -2.410156 C 7.65625 -2.410156 6.328125 -2.691406 5.136719 -3.039062 L 5.136719 -16.707031 C 6.328125 -16.988281 7.550781 -17.195312 8.878906 -17.195312 C 12.269531 -17.195312 13.875 -14.996094 13.875 -11.953125 L 13.875 -7.65625 C 13.875 -4.613281 12.269531 -2.410156 8.878906 -2.410156 Z M 8.878906 -2.410156 "/></g></g></g><g fill="#2b5e70" fill-opacity="1"><g transform="translate(139.639542, 98.001565)"><g><path d="M 16.636719 -11.570312 C 16.636719 -16.953125 13.910156 -19.957031 9.085938 -19.957031 C 4.332031 -19.957031 1.539062 -16.917969 1.539062 -11.777344 L 1.539062 -8.074219 C 1.539062 -2.902344 4.367188 0.382812 9.75 0.382812 C 12.234375 0.382812 14.433594 -0.417969 16.007812 -1.433594 L 15.097656 -3.949219 C 13.875 -3.039062 11.988281 -2.375 10.03125 -2.375 C 6.570312 -2.375 4.613281 -4.507812 4.613281 -8.109375 L 4.613281 -8.808594 L 16.636719 -8.808594 Z M 9.121094 -17.230469 C 12.335938 -17.230469 13.632812 -14.925781 13.632812 -12.164062 L 13.632812 -11.535156 L 4.613281 -11.535156 L 4.613281 -11.917969 C 4.613281 -14.820312 6.011719 -17.230469 9.121094 -17.230469 Z M 9.121094 -17.230469 "/></g></g></g><g fill="#2b5e70" fill-opacity="1"><g transform="translate(157.813815, 98.001565)"><g><path d="M 8.984375 0.417969 C 10.800781 0.417969 13.597656 0.0351562 16.113281 -0.59375 L 16.113281 -19.328125 L 13.070312 -19.328125 L 13.070312 -2.832031 C 11.742188 -2.445312 10.3125 -2.273438 9.191406 -2.273438 C 6.710938 -2.273438 5.136719 -3.214844 5.136719 -5.835938 L 5.136719 -19.328125 L 2.097656 -19.328125 L 2.097656 -5.695312 C 2.097656 -1.292969 4.789062 0.417969 8.984375 0.417969 Z M 8.984375 0.417969 "/></g></g></g><g fill="#2b5e70" fill-opacity="1"><g transform="translate(175.988088, 98.001565)"><g><path d="M 5.136719 0 L 5.136719 -16.148438 C 5.976562 -16.496094 7.6875 -16.671875 8.808594 -16.671875 L 11.289062 -16.671875 L 11.289062 -19.46875 L 8.457031 -19.46875 C 6.710938 -19.46875 4.019531 -19.1875 2.097656 -18.558594 L 2.097656 0 Z M 5.136719 0 "/></g></g></g><g fill="#2b5e70" fill-opacity="1"><g transform="translate(194.092465, 98.001565)"><g><path d="M 20.832031 -3.667969 L 16.8125 -28.34375 L 12.058594 -28.34375 L 8.003906 -3.636719 L 3.738281 -28.34375 L 0.453125 -28.34375 L 5.730469 0 L 10.34375 0 L 14.433594 -25.058594 L 18.488281 0 L 23.136719 0 L 28.378906 -28.34375 L 25.09375 -28.34375 Z M 20.832031 -3.667969 "/></g></g></g><g fill="#2b5e70" fill-opacity="1"><g transform="translate(222.751899, 98.001565)"><g><path d="M 16.636719 -11.570312 C 16.636719 -16.953125 13.910156 -19.957031 9.085938 -19.957031 C 4.332031 -19.957031 1.539062 -16.917969 1.539062 -11.777344 L 1.539062 -8.074219 C 1.539062 -2.902344 4.367188 0.382812 9.75 0.382812 C 12.234375 0.382812 14.433594 -0.417969 16.007812 -1.433594 L 15.097656 -3.949219 C 13.875 -3.039062 11.988281 -2.375 10.03125 -2.375 C 6.570312 -2.375 4.613281 -4.507812 4.613281 -8.109375 L 4.613281 -8.808594 L 16.636719 -8.808594 Z M 9.121094 -17.230469 C 12.335938 -17.230469 13.632812 -14.925781 13.632812 -12.164062 L 13.632812 -11.535156 L 4.613281 -11.535156 L 4.613281 -11.917969 C 4.613281 -14.820312 6.011719 -17.230469 9.121094 -17.230469 Z M 9.121094 -17.230469 "/></g></g></g><g fill="#2b5e70" fill-opacity="1"><g transform="translate(240.926172, 98.001565)"><g><path d="M 8.984375 0.417969 C 14.191406 0.417969 16.988281 -2.832031 16.988281 -7.722656 L 16.988281 -11.8125 C 16.988281 -16.707031 14.261719 -19.957031 9.050781 -19.957031 C 7.792969 -19.957031 6.464844 -19.675781 5.136719 -19.292969 L 5.136719 -28.34375 L 2.097656 -28.34375 L 2.097656 -0.769531 C 4.300781 0.0351562 6.5 0.417969 8.984375 0.417969 Z M 8.878906 -2.308594 C 7.550781 -2.308594 6.328125 -2.515625 5.136719 -2.832031 L 5.136719 -16.566406 C 6.359375 -16.917969 7.65625 -17.195312 8.878906 -17.195312 C 12.269531 -17.195312 13.875 -14.960938 13.875 -11.953125 L 13.875 -7.585938 C 13.875 -4.578125 12.269531 -2.308594 8.878906 -2.308594 Z M 8.878906 -2.308594 "/></g></g></g><g mask="url(#de9d9dc967)"><g transform="matrix(1, 0, 0, 1, 65, 48)"><g clip-path="url(#35221dbaee)"><path stroke-linecap="butt" transform="matrix(0.748104, 0, 0, 0.748104, 6.401702, 5.115354)" fill="none" stroke-linejoin="miter" d="M 0.000858336 2.0023 L 159.999181 2.0023 " stroke="#57b8ff" stroke-width="4" stroke-opacity="1" stroke-miterlimit="4"/></g></g></g></svg>