<svg xmlns="http://www.w3.org/2000/svg" xmlns:xlink="http://www.w3.org/1999/xlink" width="50" zoomAndPan="magnify" viewBox="0 0 37.5 37.499999" height="50" preserveAspectRatio="xMidYMid meet" version="1.0"><defs><g/></defs><g fill="#000000" fill-opacity="1"><g transform="translate(3.597656, 23.999997)"><g><path d="M 10.292969 -11.25 C 10.292969 -10.136719 9.484375 -9.363281 8.28125 -9.363281 L 8.023438 -9.363281 L 6.609375 -13.136719 L 8.328125 -13.136719 C 9.484375 -13.136719 10.292969 -12.273438 10.292969 -11.25 Z M 1.820312 -0.484375 C 1.820312 -0.15625 2.011719 0 2.316406 0 L 5.652344 0 C 6 0 6.171875 -0.15625 6.171875 -0.484375 L 6.171875 -5.832031 L 9.574219 -5.832031 C 12.644531 -5.867188 14.6875 -8.53125 14.6875 -11.226562 C 14.6875 -13.96875 12.585938 -16.691406 9.496094 -16.691406 L 1.753906 -16.691406 C 1.5625 -16.691406 1.359375 -16.609375 1.359375 -16.417969 C 1.359375 -16.339844 1.40625 -16.285156 1.449219 -16.160156 L 4 -9.375 L 2.347656 -9.375 C 2.066406 -9.375 1.855469 -9.183594 1.855469 -8.878906 L 1.855469 -0.585938 Z M 1.820312 -0.484375 "/></g></g></g><g fill="#000000" fill-opacity="1"><g transform="translate(18.45466, 23.999997)"><g><path d="M 9.40625 -0.496094 C 9.585938 -0.167969 9.84375 0 10.171875 0 L 14.039062 0 C 14.40625 0 14.496094 -0.167969 14.316406 -0.496094 L 11.296875 -6.148438 C 13.398438 -6.921875 14.6875 -9.070312 14.6875 -11.226562 C 14.6875 -13.96875 12.585938 -16.691406 9.496094 -16.691406 L 1.597656 -16.691406 C 1.269531 -16.691406 1.226562 -16.464844 1.371094 -16.195312 L 4.855469 -9.375 L 2.347656 -9.375 C 2.066406 -9.375 1.855469 -9.183594 1.855469 -8.878906 L 1.820312 -0.484375 C 1.820312 -0.15625 2.011719 0 2.316406 0 L 5.652344 0 C 6 0 6.171875 -0.15625 6.171875 -0.484375 L 6.171875 -5.832031 L 6.675781 -5.832031 Z M 10.40625 -11.25 C 10.40625 -10.496094 10.046875 -9.921875 9.453125 -9.609375 L 7.574219 -13.136719 L 8.441406 -13.136719 C 9.597656 -13.136719 10.40625 -12.273438 10.40625 -11.25 Z M 10.40625 -11.25 "/></g></g></g></svg>