<?xml version="1.0" standalone="no"?>
<!DOCTYPE svg PUBLIC "-//W3C//DTD SVG 20010904//EN"
 "http://www.w3.org/TR/2001/REC-SVG-20010904/DTD/svg10.dtd">
<svg version="1.0" xmlns="http://www.w3.org/2000/svg"
 width="70.000000pt" height="70.000000pt" viewBox="0 0 70.000000 70.000000"
 preserveAspectRatio="xMidYMid meet">
<metadata>
Created by potrace 1.14, written by Peter Selinger 2001-2017
</metadata>
<g transform="translate(0.000000,70.000000) scale(0.100000,-0.100000)"
fill="#000000" stroke="none">
<path d="M286 678 c3 -5 -4 -8 -14 -8 -38 0 -142 -57 -142 -78 0 -6 -3 -11 -7
-11 -5 1 -15 1 -23 0 -13 -1 -13 -2 0 -11 9 -5 19 -5 27 2 9 7 13 7 13 -1 0
-7 5 -9 10 -6 8 5 8 11 0 19 -8 10 4 21 50 45 129 69 268 49 375 -54 47 -45
95 -115 79 -115 -4 0 -1 -7 6 -15 6 -8 9 -19 6 -24 -4 -5 -3 -12 2 -15 7 -4 9
-121 2 -121 -1 0 -3 -8 -5 -18 -2 -10 -11 -29 -20 -43 -11 -17 -13 -30 -6 -41
7 -14 12 -9 22 27 7 25 13 51 12 58 0 6 3 12 8 12 5 0 7 35 6 78 -4 95 -35
169 -98 232 -65 64 -135 93 -230 94 -43 1 -75 -2 -73 -6z"/>
<path d="M185 609 c-4 -5 6 -9 20 -9 15 0 24 -4 20 -10 -3 -5 -15 -10 -26 -10
-10 0 -19 -4 -19 -8 0 -5 20 -8 45 -7 25 1 45 -2 45 -6 0 -5 -20 -9 -45 -9
-25 0 -45 -4 -45 -10 0 -5 14 -10 30 -10 17 0 30 -4 30 -9 0 -4 -11 -6 -25 -3
-15 2 -25 0 -25 -7 0 -6 14 -11 30 -11 17 0 30 -4 30 -10 0 -6 -32 -10 -77
-10 -80 0 -96 -11 -19 -14 48 -2 77 -16 33 -16 -15 0 -27 -4 -27 -10 0 -6 29
-10 67 -10 72 0 83 -9 14 -12 -42 -1 -71 -18 -31 -18 12 0 18 -4 15 -10 -4 -6
-12 -10 -18 -9 -25 3 -38 -1 -32 -11 3 -6 17 -8 31 -6 13 3 24 0 24 -5 0 -5
-9 -9 -21 -9 -11 0 -17 -4 -14 -10 3 -5 16 -10 27 -10 31 0 17 -9 -21 -14 -52
-6 -48 -16 7 -16 29 0 52 -4 52 -9 0 -5 -11 -8 -25 -5 -14 2 -25 0 -25 -6 0
-5 18 -10 41 -10 32 0 42 4 46 20 4 15 14 20 39 20 19 0 34 -5 34 -11 0 -5 -6
-7 -12 -4 -7 4 -4 -1 6 -9 19 -15 18 -16 -20 -18 -38 -1 -37 -1 11 -8 28 -4
38 -8 23 -8 -16 -1 -28 -7 -28 -13 0 -5 5 -7 12 -3 7 5 9 2 5 -9 -4 -10 0 -17
11 -20 10 -3 4 -6 -13 -7 -30 -2 -30 -2 -5 -10 20 -6 15 -8 -24 -9 -27 -1 -46
-4 -42 -8 4 -4 22 -6 41 -5 18 2 36 -1 40 -7 3 -7 0 -8 -9 -5 -9 3 -16 1 -16
-5 0 -6 6 -11 13 -12 6 -1 1 -5 -13 -9 -25 -8 -24 -8 5 -9 23 -1 27 -3 15 -11
-11 -7 -7 -10 17 -10 30 0 32 3 35 37 4 52 29 55 61 8 32 -47 71 -69 87 -50 9
11 6 20 -14 42 -31 33 -33 54 -6 71 14 9 20 23 20 50 -1 60 -20 76 -98 82 -37
3 -83 3 -102 1 l-35 -4 30 -7 c26 -7 24 -8 -17 -9 -45 -1 -48 1 -48 24 0 20 5
25 28 26 49 1 87 10 110 25 78 51 73 167 -8 206 -35 17 -236 23 -245 7z m215
-79 c11 -11 20 -26 20 -33 0 -20 -31 -45 -60 -48 -57 -5 -60 -2 -60 51 l0 50
40 0 c27 0 47 -7 60 -20z m110 -261 c14 -25 -12 -48 -52 -46 -29 2 -33 6 -36
34 -3 26 1 32 20 35 34 5 57 -2 68 -23z"/>
<path d="M69 538 c-7 -12 -12 -26 -11 -30 1 -5 -3 -8 -9 -8 -5 0 -8 -4 -5 -9
4 -5 1 -11 -4 -13 -6 -2 -12 -15 -14 -29 -1 -13 -5 -29 -8 -35 -13 -21 1 -150
21 -198 32 -74 124 -158 197 -181 55 -17 150 -25 170 -13 5 3 17 4 27 3 9 -2
17 0 17 4 0 4 18 13 39 20 21 6 41 18 44 25 4 10 -11 6 -46 -12 -43 -22 -66
-26 -132 -27 -68 0 -89 4 -137 28 -68 34 -166 125 -151 141 4 3 1 6 -6 6 -7 0
-9 5 -6 10 3 6 1 10 -5 10 -7 0 -10 6 -7 14 3 7 1 18 -5 24 -6 6 -10 39 -9 74
2 90 4 108 13 108 4 0 7 3 6 8 -3 14 28 72 35 65 4 -3 7 -2 7 4 0 6 12 9 27 7
15 -1 34 1 43 6 12 7 10 9 -10 10 -14 0 -35 3 -47 6 -16 4 -25 0 -34 -18z"/>
<path d="M140 510 c0 -5 7 -10 15 -10 8 0 15 5 15 10 0 6 -7 10 -15 10 -8 0
-15 -4 -15 -10z"/>
<path d="M150 410 c0 -5 7 -10 16 -10 8 0 12 5 9 10 -3 6 -10 10 -16 10 -5 0
-9 -4 -9 -10z"/>
<path d="M95 340 c4 -6 11 -8 16 -5 14 9 11 15 -7 15 -8 0 -12 -5 -9 -10z"/>
<path d="M130 340 c0 -5 11 -10 25 -10 14 0 25 5 25 10 0 6 -11 10 -25 10 -14
0 -25 -4 -25 -10z"/>
<path d="M130 310 c0 -5 5 -10 10 -10 6 0 10 5 10 10 0 6 -4 10 -10 10 -5 0
-10 -4 -10 -10z"/>
<path d="M294 219 c-3 -5 7 -9 22 -9 15 0 24 3 20 7 -11 11 -35 12 -42 2z"/>
<path d="M308 193 c7 -3 16 -2 19 1 4 3 -2 6 -13 5 -11 0 -14 -3 -6 -6z"/>
<path d="M602 155 c-14 -14 -19 -26 -12 -30 5 -3 10 -1 10 5 0 6 4 9 9 5 9 -5
27 32 19 40 -2 2 -13 -7 -26 -20z"/>
<path d="M298 123 c7 -3 16 -2 19 1 4 3 -2 6 -13 5 -11 0 -14 -3 -6 -6z"/>
</g>
</svg>
