<svg data-bbox="21.711 35.5 156.577 129" viewBox="0 0 200 200" height="200" width="200" xmlns="http://www.w3.org/2000/svg" data-type="color">
    <g>
        <path d="M178.288 156.373l-.883-.58.883.58z" fill="#FFDFCB" data-color="1"/>
        <path d="M152.089 60.327c-1.104-3.193-6.753-16.139-8.387-18.626-.701-1.067-2.757-.816-3.065-.169-.397.834-2.423 5.238-3.13 6.754-1.964 4.209-3.945 8.777-5.189 13.189l-.174.645c-.462 3.31 12 2.153 13.829 2.097 2.005-.061 4.153.997 5.703-.531 1.247-1.232.893-1.972.413-3.359z" fill="#FFDD3F" data-color="2"/>
        <path d="M143.215 37.732c.537-1.081.738-2.073.448-2.215-.289-.143-.959.618-1.496 1.699s-.738 2.073-.448 2.215c.29.143.959-.618 1.496-1.699z" fill="#FFDD3F" data-color="2"/>
        <path d="M81.215 38.729c.537-1.081.738-2.073.448-2.215-.289-.143-.959.618-1.496 1.699s-.738 2.073-.448 2.215c.29.142.959-.618 1.496-1.699z" fill="#FFDD3F" data-color="2"/>
        <path d="M35.239 45.657c-.631-.961-2.483-.735-2.76-.152-.357.751-2.182 4.716-2.818 6.081-1.768 3.79-3.552 7.903-4.672 11.875l-.157.581c-.416 2.98 10.804 1.938 12.451 1.888 1.805-.055 3.739.898 5.134-.478 1.124-1.109.805-1.775.373-3.024-.993-2.875-6.08-14.532-7.551-16.771z" fill="#FFDD3F" data-color="2"/>
        <path d="M35.215 41.717c.537-1.081.738-2.073.448-2.215-.289-.143-.959.618-1.496 1.699s-.738 2.073-.448 2.215c.29.143.959-.618 1.496-1.699z" fill="#FFDD3F" data-color="2"/>
        <path d="M92.215 38.729c.537-1.081.738-2.073.448-2.215-.289-.143-.959.618-1.496 1.699s-.738 2.073-.448 2.215c.29.142.959-.618 1.496-1.699z" fill="#FFDD3F" data-color="2"/>
        <path d="M92.784 42.346c-.783-1.192-3.079-.911-3.423-.189-.443.931-2.705 5.849-3.495 7.542-.182.391-.365.789-.547 1.185-1.57-3.551-3.249-7.133-3.984-8.251-.602-.916-2.366-.7-2.63-.145-.34.716-2.079 4.495-2.686 5.795-1.685 3.612-3.385 7.531-4.452 11.316l-.15.554c-.299 2.146 5.732 2.103 9.375 1.934a60.022 60.022 0 0 0-.721 2.34l-.195.72c-.516 3.696 13.399 2.404 15.441 2.342 2.239-.068 4.637 1.113 6.368-.593 1.394-1.375.998-2.202.463-3.75-1.231-3.566-7.539-18.023-9.364-20.8z" fill="#FFDD3F" data-color="2"/>
        <path d="M155.196 63.685c-.348-1.749-2.076-2.881-4.315-2.714-1.283.095-6.092.744-9.808.82-3.568.073-7.662-1.055-8.554-1.01-.961.049-1.063.535-1.93.923-1.722.772-2.636 3.731-1.201 5.258 1.132 1.204 9.9 1.865 12.073 1.732 9.002-.549 11.555-1.26 12.205-1.592 1.236-.632 1.87-1.711 1.53-3.417z" fill="#FFDFCB" data-color="1"/>
        <path d="M41.702 63.007c-1.155.086-5.485.67-8.83.739-3.212.066-6.899-.95-7.702-.909-.865.044-.957.481-1.738.831-1.551.695-2.374 3.359-1.082 4.734 1.019 1.084 8.913 1.679 10.87 1.56 8.105-.494 10.404-1.134 10.989-1.433 1.113-.569 1.684-1.541 1.378-3.077-.313-1.576-1.868-2.596-3.885-2.445z" fill="#FFDFCB" data-color="1"/>
        <path d="M100.8 63.863c-1.433.107-6.802.831-10.951.916-3.97.082-8.522-1.169-9.539-1.128a67.972 67.972 0 0 1 1.298-3.909c-.86.064-1.724.111-2.528.128-3.061.063-6.574-.906-7.339-.867-.621.031-.824.276-1.204.537 2.162 1.558 3.603 3.731 4.551 6.061.624.057 1.233.102 1.799.136-1.015 1.374-1.283 3.541-.085 4.815 1.264 1.345 11.054 2.082 13.481 1.934 10.052-.613 12.903-1.407 13.628-1.778 1.38-.706 2.088-1.911 1.709-3.816-.39-1.951-2.319-3.215-4.82-3.029z" fill="#FFDFCB" data-color="1"/>
        <path d="M34.677 48.705c-.294.124.589 2.856 1.972 6.102 1.383 3.246 2.742 5.777 3.035 5.653.294-.124-.589-2.856-1.972-6.102-1.382-3.247-2.741-5.777-3.035-5.653z" fill="#36418E" data-color="3"/>
        <path d="M80.793 44.671c-.23.097.461 2.234 1.543 4.774 1.082 2.539 2.145 4.519 2.374 4.422.23-.097-.461-2.234-1.543-4.773-1.081-2.54-2.144-4.52-2.374-4.423z" fill="#36418E" data-color="3"/>
        <path d="M146.559 51.365c-1.85-4.344-3.669-7.731-4.062-7.565-.393.166.789 3.822 2.639 8.166 1.851 4.344 3.669 7.731 4.062 7.565.394-.166-.788-3.822-2.639-8.166z" fill="#36418E" data-color="3"/>
        <path d="M91.497 44.796c-.393.166.789 3.822 2.639 8.166 1.851 4.344 3.669 7.731 4.062 7.565.393-.166-.789-3.822-2.639-8.166-1.85-4.344-3.669-7.731-4.062-7.565z" fill="#36418E" data-color="3"/>
        <path d="M135.756 74.568c-1.035-.475-19.945-1.076-33.577-1.323-.207.695-.5 1.36-.919 1.755-.818.771-4.353 1.922-10.645 1.922-1.205 0-2.693-.036-4.208-.163-1.592-.134-3.214-.368-4.57-.773-1.582-.472-2.802-1.175-3.188-2.214a20.409 20.409 0 0 1-.195-.548l-.025-.074c-.059-.177-.112-.35-.159-.518l-.017-.063a5.967 5.967 0 0 1-.115-.503l-.002-.014c-.031-.168.864-.052-3.636-.399-10.084.386-32.827 2-36.567 2.565-.315.047-.605.271-.861.613-2.554.735-4.201 9.676.785 10.117 7.399.653 26.268 3.38 36.748 4.759.139 9.178.337 18.111.323 20.768-.023 4.577 2.162 7.838 7.052 7.838 6.132 0 5.66-6.206 5.649-6.719-.152-7.406-.182-14.815-.27-22.222-.02-1.717-.045-3.358-.07-4.988a7.355 7.355 0 0 0 .093-1.883c.649.731 1.585 1.24 2.893 1.352 9.72.838 39.65 2.518 42.696 2.389 2.865-.121 3.465-1.455 4.517-4.021.966-2.358 1.212-6.303-1.732-7.653z" fill="#FFDD3F" data-color="2"/>
        <path d="M62.49 57.18c-14.946 0-14.521 18.562-14.521 18.562s.826 1.35 2.585 1.35c3.092 0 3.092-1.176 3.092-1.176s1.202-12.477 8.191-12.92C71.4 62.389 70.44 77.96 70.44 77.96s.84 1.73 2.874 1.73c2.603 0 3.434-1.196 3.434-1.196S79.113 57.18 62.49 57.18z" fill="#36418E" data-color="3"/>
        <path d="M133.291 112.569c-8.139-1.9-39.996-6.533-49.078-6.605-3.597-.028-11.209 1.499-14.671 2.366-6.914 1.732-31.139 8.853-32.371 13.801-.696 2.799 2.709 3.663 4.973 3.551 2.64-.131 5.525-1.354 8.149-1.846.536-.101 1.069-.217 1.605-.321.755.386 1.553.703 2.323.919l-1.613-.437c1.119.393 2.216.902 3.27 1.307 6.395 2.457 13.413 3.601 19.8 6.008 6.316 2.381 11.29 7.396 18.895 4.67 9.733-3.488-6.667-9.748-9.752-10.896-1.88-.699-9.751-3.098-17.551-5.145a744.43 744.43 0 0 0 4.488-1.198c4.811-1.303 9.61-2.509 14.376-3.917 5.631-1.664 11.184-2.099 16.995-1.49 4.945.518 21.174 3.418 24.715 4.212.62-.376 1.246-.748 1.881-1.109 1.781-1.239 3.639-2.335 5.512-3.395-.646-.163-1.295-.323-1.946-.475z" fill="#FFDFCB" data-color="1"/>
        <path d="M105.929 122.773c-3.511-.948-46.865-10.927-51.153-9.649-1.993.594-3.617 1.901-4.159 3.315 9.356 1.807 25.409 6.608 28.206 7.648 2.121.789 10.533 3.994 12.424 7.053 2.563.666 5.164 1.217 7.811 1.365 3.44.192 5.27-1.446 8.406-1.938-.687-4.582 2.161-6.796-1.535-7.794z" fill="#FFDD3F" data-color="2"/>
        <path d="M40.189 72.809c-1.451.398-3.678.727-6.699.727-1.856 0-4.537-.105-6.62-.633-.527 9.133.503 49.635.474 56.3-.017 3.918 3.225 7.486 7.131 7.687l.167.006c4.613.13 6.097-4.359 6.026-8.358-.161-9.213-.205-19.07-.298-28.284-.09-8.968-.268-16.37-.181-27.445z" fill="#3F49AC" data-color="4"/>
        <path d="M151.086 104.618c-.112-10.987-.328-20.126-.244-33.37-1.213.653-4.23 1.418-9.083 1.418-2.31 0-5.77-.147-8.156-.937-.498 13.799.534 57.265.498 65.283-.032 7.239 4.632 9.239 9.539 9.2 7.24-.058 7.839-8.388 7.825-9.2-.207-11.712-.26-20.68-.379-32.394z" fill="#3F49AC" data-color="4"/>
        <path d="M141.577 72.665c-2.894-.009-7.428-.25-9.522-1.648a625.523 625.523 0 0 1-.133 7.986c-.173 8.269-.391 16.537-.593 24.805-.122 4.984-.236 9.968-.336 14.952-.975-.47-2.346-.975-3.996-1.499.531-.776 1.313-1.329 2.371-1.316.054-1.053-.106-2.087-.068-3.131.038-1.038.136-2.075.078-3.115-.186-3.371-.889-6.669-2.837-9.563-.937-1.392-2.366-2.379-3.972-2.863-1.468-.443-3.018-.885-4.72-.234 3.509 1.18 4.869 7.149 5.194 10.346.232 2.282.287 4.575.334 6.867.013.652.027 1.305.043 1.958-10.153-2.793-25.716-5.801-30.682-6.817-2.861-.585-5.22-.97-8.05.152-1.717.681-4.569 1.809-5.226 3.562l-1.71.865c1.787.376 3.373 1.676 5.196 2.185 2.287.639 4.603.91 6.949 1.294 6.094.998 12.268 1.951 18.019 4.057 5.235 1.917 18.628 5.767 23.025-.58-.126 3.747-1.678 11.011 3.36 11.5 3.133.304 6.923-2.6 7.06-5.683.189-4.235-.266-8.695-.292-12.965-.056-9.035.446-31.796.508-41.115z" fill="#001B4A" data-color="5"/>
        <path d="M109.233 133.795c-.639-.447-1.794.205-2.465.378-1.069.276-2.098.691-3.184.908-.983.197-1.957.454-2.937.67-1.121.248-2.028.333-3.157.38-1.821.075-3.314.757-5.119-.087-2.978-1.392-5.378-4.262-8.563-5.206-2.89-.856-16.767-4.903-20.779-6.272-1.096-.374-4.373-1.205-8.054-2.111 1.468-4.336-.463-10.577 2.688-14.238.349-.406.761-.78 1.247-1.116 2.021-1.399 4.108-.712 6.333-.894.559-.046-1.619-2.225-1.785-2.329-1.122-.704-2.443-1.085-3.744-1.292-2.402-.382-4.145-.016-5.577 1.964-1.374 1.899-3.09 3.729-4.288 5.725-1.276 2.127-1.428 4.581-1.536 6.997-.039.874-.262 2.174-.326 3.479-3.184-.775-5.78-1.412-6.437-1.622-1.169-.373-2.323-.756-3.483-.976-.066-11.194-.384-34.715-.447-44.855-1.038.13-2.258.216-3.649.232.025 7.954.216 27.072.194 34.681-.009 3.367-.019 6.733-.03 10.1-.021.007-.042.009-.064.016-1.781.601-4.286 1.736-4.209 4.003-.013-.374 2.548.15 4.259.545-.002.862-.007 1.723-.008 2.585-.004 3.328.995 7.188-2.608 9.606.257.171.511.345.762.523.214.053.423.128.625.229 6.359-1.603 5.453-7.578 5.225-11.847 2.488.771 5.058 1.674 7.422 2.422 5.492 1.738 30.956 9.451 32.974 10.259 3.038 1.216 6.709 2.33 9.973 2.783 4.399.611 8.681-.814 12.882-1.904 1.872-.486 3.782-.823 5.642-1.355.809-.229 4.103-1.067 2.223-2.381z" fill="#001B4A" data-color="5"/>
        <path d="M150.105 125.477c-1.06-.541-42.412 10.16-51.696 12.127l-.613.126c-3.339.662-7.504-.021-7.664 3.764-1.683-3.129-5.884-3.532-9.027-4.38-4.219-1.138-8.411-2.383-12.591-3.674-.238-1.454-.873-2.723-2.414-2.871-1.086-.104-2.137.426-3.127 1.134-4.283-1.358-8.558-2.739-12.84-4.084-4.653-1.462-9.307-2.938-14-4.261-1.555-.438-4.599-2.515-5.999-1.368-1.529 1.253-.867 4.846-.867 6.55 0 3.019-.013 5.691 2.802 7.291 3.147 1.789 6.826 2.227 10.173 3.505 2.219.848 4.448 1.669 6.672 2.501-1.862 1.356-3.699 2.788-5.479 4.144-1.557 1.186-3.315 1.926-4.134 3.648-.782-.523-1.864-.952-2.557-1.25-3.07-1.321-5.949-2.76-8.906-4.304-.864-.451-2.842-2.005-3.976-1.346a1.14 1.14 0 0 0-.357.35c-.313.455-.518 1.079-.645 1.758l-.007.015c-.47.951-.669 1.927-.446 2.999.382 1.835 1.527 3.356 3.041 4.36 2.271 1.506 12.164 7.252 13.672 6.436.087-.047.157-.129.228-.208.117.094.252.173.432.214 1.113.251 20.922-7.398 27.538-9.989l.904.333c3.658 1.355 7.303 2.742 10.96 4.098 2.403.891 4.904 2.224 7.494 2.654 1.494.498 3.171.786 3.948-.285.094-.13.186-.401.249-.672.065-.091.107-.203.161-.304.063.534.191.949.423 1.143.287.241 2.189-.074 5.065-.734-.278.279-.502.499-.514.502 2.52-.609 15.04-3.503 16.148-4.063a1.932 1.932 0 0 0-.069-.533c11.422-3.192 23.973-6.916 27.375-7.789 4.531-1.162 11.202-1.113 12.514-6.34.739-2.944-.962-10.733-1.871-11.197z" fill="#FFDD3F" data-color="2"/>
        <path d="M137.954 76.072c-4.954-1.072-14.615.18-21.672 2.27-2.166.641-5.269.979-6.74 2.896-1.642 2.14-1.293 6.076-1.174 8.913-3.332.595-6.152 1.05-8.031 1.218-2.831.253-4.386-1.528-4.256.895.148 2.762.317 5.541.327 8.312.008 2.252-.293 5.398.986 7.48l.491-4.548c.006 1.937.375 3.706.817 5.616.636 2.75.658 5.371.655 8.158-.005 4.481.16 9.415-.343 13.9-.252 2.246-.522 4.382-.4 6.649 3.482-1.187 8.458-3.249 12.44-3.083.492-4.07.057-8.212-.481-12.346-.978-.302-1.85-.6-2.572-.863V108.43l1.344.186c-.116-3.479.025-6.966 2.105-9.517.717.19 1.489.362 2.264.934 1.782 1.314 3.427 6.396 3.257 9.691 2.21.335 4.339.669 6.306.991a57.012 57.012 0 0 0-.231-3.329c-.325-3.197-1.685-9.167-5.194-10.346 1.702-.652 3.252-.209 4.72.234 1.606.484 3.035 1.472 3.972 2.863 1.948 2.893 2.65 6.191 2.837 9.563.038.691.007 1.38-.029 2.069 1.574.293 1.663.971 2.597 1.215-.137-.033-.232-.055.053.017-1.873 1.06-.493 2.2-2.274 3.439-.558.317-1.108.645-1.655.975 3.023.896 7.847 1.135 10.27-.078 2.247-1.125 1.63-3.272 1.087-5.554.448-6.571.454-19.315.436-24.507.044-.42.088-.841.136-1.275.52-4.702-.681-9.634-2.048-9.929z" fill="#3F49AC" data-color="4"/>
        <path d="M83.451 113.457c.14-2.866.326-5.74.327-8.606.002-3.918-.2-7.881-.775-11.768-.204-1.375-.157-3.163-1.389-4.057-1.405-1.02-4.312-.792-5.924-.881-5.65-.312-11.22-1.394-16.826-2.109-4.396-.56-8.905-.906-13.17-2.118-2.056-.584-4.88-1.939-6.977-1.134-.012 4.165.077 38.533-.211 39.666-.119.468 6.923 2.511 9.408 3.078.575-3.199 1.172-5.053 2.061-8.147 1.349-4.699 2.173-9.611 7.382-11.728 6.318-2.568 11.473 4.856 13.243 9.653 1.741 4.719 2.51 9.383 2.036 14.473-.171 1.834.228 3.647.228 3.647s11.988 3.9 14.066 3.48c.598-3.783-1.526-4.741-2.274-8.222-1.031-4.809-1.444-10.317-1.205-15.227z" fill="#3F49AC" data-color="4"/>
        <path d="M131.157 100.088c-1.523-4.056-6.495-8.117-10.942-7.977-17.327.546-14.936 23.315-14.713 26.009.135 1.628-.403 5.095 1.567 5.882l-.327-.812c1.804.04 3.982-1.386 4.417-2.888.376-1.296-.107-3.239-.164-4.55-.068-1.591-.164-3.151-.164-4.751 0-5.792 3.521-16.241 10.965-13.967 2.536.774 4.454 3.195 5.521 5.57 1.626 3.618 2.039 7.887 1.836 11.815-.077 1.505-.284 2.602 1.8 2.274 2.086-.328 1.713-.681 2.006-2.599.653-4.273-.279-9.948-1.802-14.006z" fill="#FFFFFF" data-color="6"/>
        <path d="M59.344 101.03c-6.654-.032-10.627 4.9-12.454 10.765-.899 2.886-1.38 5.753-1.235 8.741.071 1.463-.372 5.182 1.818 5.251 2.764.088 2.766-5.292 2.805-6.959.118-5.041 1.159-13.781 8.296-13.166 3.641.314 6.331 2.705 7.89 5.964 2.093 4.374 2.452 9.56 2.411 14.354a64.518 64.518 0 0 1-.096 3.171c-.054.929-.084 1.863.207 2.575.284.693.873 1.175 2.042 1.237 1.722.09 2.244-.895 2.657-2.379.81-2.91.458-6.294.266-9.272-.581-9.016-3.942-20.23-14.607-20.282z" fill="#FFFFFF" data-color="6"/>
        <path fill="#FFDFCB" d="M149.376 107.83c0 19.155-.336 34.684-.75 34.684s-.75-15.529-.75-34.684c0-19.155.336-34.684.75-34.684s.75 15.529.75 34.684z" data-color="1"/>
        <path d="M136.402 74.409c-7.073.906-29.745 3.676-33.813 4.246-1.277.179-3.453.28-4.37 1.717-1.016 1.592-1.382 9.991-.419 11.736.882 1.599 39.852-4.518 41.505-6.338 3.581-3.941.438-11.789-2.903-11.361z" fill="#FFDFCB" data-color="1"/>
        <path fill="#FFDFCB" d="M33.432 95.876c0 11.453-.336 20.738-.75 20.738s-.75-9.285-.75-20.738.336-20.738.75-20.738.75 9.285.75 20.738z" data-color="1"/>
        <path d="M50.596 130.369c.775-.585 3.28-1.936 3.625-2.65.669-1.387-1.506-3.028-2.979-3.168-1.996-.189-3.478 1.137-4.96 2.085-1.178.754-8.736 6.263-11.339 8.093-3.743 2.631-7.518 5.24-11.168 7.998-.908.686.625-.053-.064.748l.912.512c1.619.155 2.851 2.785 4.633 1.975 4.621-2.101 8.95-6.36 12.994-9.358 2.79-2.068 5.575-4.144 8.346-6.235z" fill="#3F49AC" data-color="4"/>
        <path d="M64.189 129.068c-.913-.759-2.39-.844-3.548-.66-2.806.445-5.043 2.667-7.268 4.238a356.148 356.148 0 0 0-8.97 6.577c-.681.514-10.957 8.632-10.893 8.693 1.432 1.298 3.35 3.031 5.493 2.701 1.442-.222 3.19-1.844 4.358-2.613 2.872-1.891 5.695-3.855 8.498-5.845 3.253-2.309 7.038-4.572 9.916-7.329 1.288-1.233 3.944-2.696 3.389-4.467-.13-.415-.435-.846-.975-1.295z" fill="#3F49AC" data-color="4"/>
        <path d="M99.439 112.133c-.119-11.887-.352-21.743-.254-36.185-1.789.525-4.642.974-8.571.974-2.719 0-6.874-.177-9.537-1.192-.644 13.143.511 62.19.473 71.017-.034 7.735 4.879 9.873 10.048 9.831 7.625-.062 8.257-8.963 8.241-9.831-.219-12.514-.274-22.098-.4-34.614z" fill="#3F49AC" data-color="4"/>
        <path d="M167.461 148.508c-.047-.828.029-1.148-.804-1.288-.64-.108-1.372.221-1.968.398-1.776.528-3.497 1.155-5.32 1.428-1.868.28-3.668 1.277-5.393 2.041-1.904.843-3.947 1.341-5.84 2.15-1.699.726-3.227 1.716-5.106 2.042a2.1 2.1 0 0 0-1.222.665c-.547-2.717-3.879-3.418-5.997-4.518-2.707-1.406-5.345-2.939-8.072-4.308-2.528-1.269-4.246-3.269-5.897-5.548-.774-1.068-1.536-2.126-2.361-3.154-1.08-1.346-1.91-3.017-2.791-4.481-.736-1.223-.953-2.765-1.754-3.951-4.532-6.71-7.111-5.983-9.479-5.961-.544.005-.367 5.907-.307 6.418 4.146-.537 5.391 6.299 5.397 9.476.003 1.739-.375 3.451-.632 5.195-.369 2.5-.156 4.54 1.496 6.58.828 1.022 19.593 8.957 24.278 11.133 1.223.568 2.953 1.539 4.325 1.491.264-.009.488-.074.695-.162.002.002.002.006.004.007.35.356 1.667.064 2.097.018 1.472-.157 20.366-6.505 21.891-7.071 1.437-.534 2.331-1.147 2.507-2.683.202-1.762.353-4.145.253-5.917z" fill="#36418E" data-color="3"/>
        <path d="M139.386 159.834c-1.13.857-2.764.366-3.942-.109-1.492-.601-2.982-1.527-3.999-2.007-3.311-1.565-6.615-3.152-9.865-4.847-1.715-.894-4.626-1.916-5.81-3.576-1.866-2.615-.902-6.104-1.063-8.622-.148-2.313-.592-4.349-1.533-6.599-.995-2.384-4.209-5.647-7.067-5.054-.464.096-1.232.618-.889 1.262.173.325 1.474.53 1.881.798 1.213.803 1.968 2.181 2.508 3.51 1.172 2.881.061 15.052.335 16.813.254 1.627 12.141 5.571 15.13 6.955a375.897 375.897 0 0 0 9.022 4.062c1.278.551 2.514 1.212 3.879 1.533.888.209 2.085.794 2.894.133 2.024-1.652 1.605-5.298.8-7.434-.659 1.123-1.208 2.368-2.281 3.182z" fill="#001B4A" data-color="5"/>
        <path d="M86.163 142.583c-.156-7.156-.331-14.312-.494-21.467-.227-9.936-.564-35.638-.74-44.515-1.229-.158-2.415-.391-3.431-.729.233 13.138.641 53.611.878 63.254.149 6.068-1.552 17.785 8.89 17.14-6.095-2.568-4.997-8.789-5.103-13.683z" fill="#001B4A" data-color="5"/>
        <path d="M157.945 146.699c-2.755-.985-5.736-2.725-8.216-4.35-3.228-2.114-5.797-4.561-7.689-7.953-1.972-3.536-4.33-6.864-7.296-9.651-1.096-1.029-2.826-2.509-4.646-3.559-1.443-.832-2.942-1.393-4.227-1.245-1.335.153-2.525.712-3.771 1.164-.115.042-2.714 1.235-2.54 1.313 1.732.78 1.874 2.611 2.642 4.125.815 1.606 1.763 3.15 2.734 4.666 1.421 2.219 2.871 4.68 4.708 6.596 3.193 3.328 6.774 6.564 10.306 9.583 1.312 1.122 2.606 2.289 3.705 3.623.679.825 2.346 3.233 2.346 3.233l17.31-5.169c.001 0-4.249-1.976-5.366-2.376z" fill="#001B4A" data-color="5"/>
        <path d="M152.157 147.088c-.884-.43-6.725-4.345-9.145-6.598-1.794-1.67-7.215-9.688-8.242-11.49a1.737 1.737 0 0 1-.104-.189l-.053-.088c-1.247-2.071-4.609-7.19-10.066-8.436-.646-.147-2.854.945-3.409 1.22.703.583 2.119 1.616 2.616 2.39 1.195 1.863 2.454 3.749 3.52 5.694 1.256 2.292 2.056 4.847 3.59 6.988 1.835 2.561 3.978 4.879 6.313 6.989 2.835 2.561 7.004 4.47 8.338 8.256.173.49.05.644.462.747.386.096 1.321-.343 1.729-.424 1.357-.269 2.73-.49 4.074-.827.379-.095 4.81-1.35 4.787-1.45-.414-1.82-2.804-2-4.41-2.782z" fill="#3F49AC" data-color="4"/>
        <path d="M167.803 148.215c-.691 1.367-.378 3.151-1.216 4.577-1.895 3.225-5.429 3.78-8.721 4.941-3.548 1.25-7.209 2.628-10.987 3.037-2.607.282-4.187-.883-4.637-3.374l-.081.161c-.018-.222-.049-.387-.244-.494-.518.601-.154 2.513-.244 3.321-.073.653-.106 1.355-.26 1.997-.164.685-.843 1.393-.704 2.11.795.04 1.596-.065 2.369-.228 3.422-.721 23.041-6.644 24.077-7.917.962-1.184 1.167-2.819 1.202-4.289.02-.905.065-3.169-.554-3.842z" fill="#36418E" data-color="3"/>
        <path d="M57.993 126.716c-2.647-1.781-6.171 1.301-8.08 2.833-2.981 2.392-6.131 4.654-9.253 6.901-2.174 1.565-11.382 7.723-11.659 8.154.717 1.11 3.213 3.039 4.51 3.311 2.541.533 11.501-8.679 13.997-10.428 2.686-1.882 5.567-3.669 8.103-5.746 1.407-1.151 4.821-3.383 2.382-5.025z" fill="#36418E" data-color="3"/>
        <path d="M168.323 141.181c-1.762-1.985-12.478-8.26-14.711-10.934-2.118-2.537-3.522-5.537-5.402-8.252-2.834-4.094-6.776-7.98-12.186-7.899-.941.014-7.566 1.537-5.686 2.888.604.434 2.596.034 3.36.234 2.266.593 4.803 2.087 6.42 3.862 2.172 2.384 3.485 4.983 5.022 7.799 1.217 2.231 2.151 4.509 3.931 6.375 1.956 2.049 4.458 3.5 6.751 5.151 1.918 1.381 4.235 2.31 5.968 3.935.447.419 2.813 4.643 2.607 5.102a.06.06 0 0 1-.044.038c1.156-.273 2.482-.633 3.706-.654.391-.007.864-3.924.987-4.364.385-1.368.275-2.157-.723-3.281z" fill="#FFDFCB" data-color="1"/>
        <path fill="#FFDFCB" d="M97.376 113.807c0 19.155-.336 34.684-.75 34.684s-.75-15.529-.75-34.684c0-19.155.336-34.684.75-34.684s.75 15.529.75 34.684z" data-color="1"/>
        <path d="M142.522 144.235c-.4-.242-.805-.476-1.211-.708-2.515-1.432-4.715-3.014-6.763-5.079-1.761-1.776-3.418-4.059-4.651-6.167-2.912-4.978-7.956-15.794-15.308-14.855-3.413.437-8.756 2.373-9.232 6.261 3.96-2.067 8.621 1.12 10.693 4.33 3.846 5.961 6.758 13.412 12.488 17.958 2.619 2.078 5.578 3.591 8.171 5.761 1.012.847 2.082 1.647 2.945 2.651 1.417 1.65 3.742 3.217 6.078 2.181 2.145-.952 2.23-4.037 1.92-5.97-.5-3.104-2.499-4.77-5.13-6.363z" fill="#FFDFCB" data-color="1"/>
        <path d="M169.666 143.99c-.274-2.368-1.781-4.393-4.855-3.093a5.125 5.125 0 0 0-1.53.992 27.371 27.371 0 0 0-2.394-1.759c-5.193-3.441-9.664-5.84-13.02-11.194-2.437-3.889-3.938-9.3-7.902-12.031-2.588-1.782-5.172-1.771-8.15-2.104-2.405-.269-4.509.384-5.851 2.588-.309.508-1.027 1.635-.49 2.19.489.506 2.375.558 3.109.881.951.418 1.915.957 2.709 1.63 1.345 1.139 2.666 3.141 2.985 4.812.335 1.753-.298 3.397.403 5.186.885 2.259 2.815 4.535 4.786 6.03 4.993 3.788 10.986 6.963 16.913 9.229 1.374.526 4.103 2.014 5.4 2.048.438.012 1.084-.24 1.683-.544 1.234 1.223 3.06 1.567 4.982-.302.971-.942 1.42-2.841 1.222-4.559z" fill="#FFDD3F" data-color="2"/>
        <path d="M143.247 147.626c-1.336.565-2.214 1.495-2.703 2.555a3.81 3.81 0 0 0-.275.883c-.165-.049-.33-.1-.499-.167-3.775-1.491-7.721-4.531-10.407-7.519-2.096-2.332-3.748-5.449-5.285-8.177-3.116-5.53-5.365-11.975-12.095-14.113-1.528-.485-3.186-.322-4.489.644-1.169.866-2.37 1.621-2.428 3.278-.046 1.338 1.01.923 1.939 1.121 2.032.433 3.761 1.944 5.228 3.323 1.937 1.82 3.573 3.965 4.977 6.21 2.104 3.364 4.108 6.822 6.931 9.655 2.719 2.729 5.99 4.865 9.224 6.935 1.823 1.167 6.166 5.193 8.344 4.169.126-.059.246-.136.361-.223 1.287 1.099 3.095 1.309 4.993-.536 1.018-.99 1.49-2.984 1.281-4.788-.287-2.489-1.869-4.615-5.097-3.25z" fill="#FFDD3F" data-color="2"/>
    </g>
</svg>
