<svg data-bbox="28.5 57.5 143 85" viewBox="0 0 200 200" height="200" width="200" xmlns="http://www.w3.org/2000/svg" data-type="color">
    <g>
        <path d="M129.366 61.941S87.232 41.413 28.5 88.627c0 0 69.511-21.29 88.192 0 0 0 13.618-9.923 12.674-26.686z" fill="#FFDFCB" data-color="1"/>
        <path d="M28.5 88.627s62.346-20.965 88.085-.924l-8.617 24.951c0 .001-15.822-33.624-79.468-24.027z" fill="#3F49AC" data-color="2"/>
        <path d="M107.968 112.655S91.929 79.03 28.5 88.628c0 0 54.143 12.461 74.425 52.504 0-.001 7.615-18.788 5.043-28.477z" fill="#FF6640" data-color="3"/>
        <path d="M168.864 90.345c-8.622-.801-17.256-1.469-25.888-2.156-2.677-6.289-5.349-12.579-8.068-18.849a43.935 43.935 0 0 0-2.949-5.682c-1.425-2.297-4.29-2.311-5.324.088-3.426 7.953-6.73 15.959-10.051 23.958-6.808.603-13.615 1.2-20.417 1.848-2.121.202-4.248.54-6.315 1.049-2.624.646-3.524 3.367-1.562 5.091 6.504 5.716 13.097 11.332 19.677 16.963-1.531 6.662-3.065 13.321-4.551 19.992a43.963 43.963 0 0 0-.954 6.33c-.197 2.696 2.112 4.392 4.359 3.059 7.446-4.42 14.823-8.955 22.211-13.474 5.862 3.514 11.721 7.032 17.605 10.506a43.873 43.873 0 0 0 5.725 2.863c2.503 1.02 4.829-.652 4.256-3.2-1.902-8.448-3.935-16.867-5.949-25.29 5.153-4.49 10.309-8.975 15.431-13.498a43.86 43.86 0 0 0 4.492-4.561c1.744-2.066.872-4.795-1.728-5.037z" fill="#FFDD3F" data-color="4"/>
    </g>
</svg>
